# xmcd CD database file
#
# Track frame offsets:
#	150
#	5645
#	61041
#	124354
#	168903
#	196188
#	257895
#	299347
#
# Disc length: 4611 seconds
#
# Revision: 0
# Processed by: cddbd v1.5.2PL0 Copyright (c) Steve Scherf et al.
# Submitted via: CDex 1.70beta2
#
DISCID=6f120108
DTITLE=Pavel Jakub Ryba and The Fish Men - The Castle
DYEAR=2010
DGENRE=Jazz
TTITLE0=Introduction
TTITLE1=Morally Topless
TTITLE2=Haven't Got It Yet
TTITLE3=What's Her Poison
TTITLE4=Smaller Wounds
TTITLE5=Tomorrow Will Be Better
TTITLE6=Straight No Chaser
TTITLE7=Salvation
EXTD=YEAR: 2010
EXTT0=
EXTT1=
EXTT2=
EXTT3=
EXTT4=
EXTT5=
EXTT6=
EXTT7=
PLAYORDER=
